<?xml version="1.0" encoding="UTF-8" standalone="no"?>
<!-- Created with Inkscape (http://www.inkscape.org/) -->

<svg
   xmlns:dc="http://purl.org/dc/elements/1.1/"
   xmlns:cc="http://creativecommons.org/ns#"
   xmlns:rdf="http://www.w3.org/1999/02/22-rdf-syntax-ns#"
   xmlns:svg="http://www.w3.org/2000/svg"
   xmlns="http://www.w3.org/2000/svg"
   xmlns:sodipodi="http://sodipodi.sourceforge.net/DTD/sodipodi-0.dtd"
   xmlns:inkscape="http://www.inkscape.org/namespaces/inkscape"
   width="103.27202mm"
   height="112.13206mm"
   viewBox="0 0 103.27202 112.13209"
   version="1.1"
   id="svg8"
   inkscape:version="0.92.2 (5c3e80d, 2017-08-06)"
   sodipodi:docname="tut2-logo-2-glow.svg">
  <defs
     id="defs2">
    <filter
       style="color-interpolation-filters:sRGB"
       inkscape:label="Blur"
       id="filter4997">
      <feGaussianBlur
         stdDeviation="2.5800000000000001"
         result="blur"
         id="feGaussianBlur4995" />
    </filter>
  </defs>
  <sodipodi:namedview
     id="base"
     pagecolor="#000000"
     bordercolor="#666666"
     borderopacity="1.0"
     inkscape:pageopacity="0"
     inkscape:pageshadow="2"
     inkscape:zoom="0.98994949"
     inkscape:cx="466.50312"
     inkscape:cy="316.55604"
     inkscape:document-units="mm"
     inkscape:current-layer="layer3"
     showgrid="false"
     inkscape:window-width="1489"
     inkscape:window-height="1006"
     inkscape:window-x="875"
     inkscape:window-y="586"
     inkscape:window-maximized="0"
     fit-margin-top="0"
     fit-margin-left="0"
     fit-margin-right="0"
     fit-margin-bottom="0" />
  <metadata
     id="metadata5">
    <rdf:RDF>
      <cc:Work
         rdf:about="">
        <dc:format>image/svg+xml</dc:format>
        <dc:type
           rdf:resource="http://purl.org/dc/dcmitype/StillImage" />
        <dc:title></dc:title>
      </cc:Work>
    </rdf:RDF>
  </metadata>
  <g
     inkscape:label="Layer 1"
     inkscape:groupmode="layer"
     id="layer1"
     sodipodi:insensitive="true"
     style="display:none"
     transform="translate(-101.25388,-173.09541)">
    <path
       style="fill:none;stroke:#808080;stroke-width:0.244;stroke-miterlimit:4;stroke-dasharray:none;stroke-dashoffset:0"
       id="path4506"
       d="m 86.702039,138.5068 c -2.677305,-5.03238 -5.965592,-9.69592 -9.394872,-14.23571 -3.531108,-4.66454 -7.038571,-9.35294 -10.819548,-13.8202 -2.01466,-2.38034 -2.949922,-3.38791 -4.987436,-5.65271 -0.666371,-0.75046 -1.332743,-1.50093 -1.999115,-2.2514 0,0 4.668888,-2.819282 4.668888,-2.819282 v 0 c 0.654841,0.755822 1.309685,1.511642 1.964529,2.267472 5.542396,6.28529 10.805019,12.79717 15.804713,19.52402 3.460295,4.54854 6.788819,9.20489 9.615225,14.18103 0,0 -4.852384,2.80678 -4.852384,2.80678 z"
       inkscape:connector-curvature="0" />
    <path
       style="fill:none;stroke:#808080;stroke-width:0.244;stroke-miterlimit:4;stroke-dasharray:none;stroke-dashoffset:0"
       id="path4508"
       d="m 85.327579,137.84573 c 1.369687,-7.37328 3.41381,-14.60092 5.532919,-21.78754 1.607153,-5.33452 3.520683,-10.60447 6.09769,-15.55375 1.197891,-2.300612 1.449742,-2.606957 2.761782,-4.667662 0.92016,-1.457182 2.12431,-2.654149 3.36859,-3.824382 0,0 5.1515,-2.106343 5.1515,-2.106343 v 0 c -1.28018,1.133734 -2.53769,2.280092 -3.48841,3.722799 -0.45196,0.678473 -0.92813,1.341437 -1.3559,2.035418 -3.459007,5.61163 -5.799598,11.82359 -7.710938,18.1076 -2.097635,7.11324 -4.118075,14.27382 -5.360167,21.59455 0,0 -4.997066,2.47931 -4.997066,2.47931 z"
       inkscape:connector-curvature="0" />
    <path
       style="fill:none;stroke:#808080;stroke-width:0.244;stroke-miterlimit:4;stroke-dasharray:none;stroke-dashoffset:0"
       id="path4510"
       d="m 85.655464,134.67867 c 0.710676,-4.68957 1.804392,-9.34071 3.335811,-13.83315 0.361376,-1.0601 0.787059,-2.09717 1.180587,-3.14576 2.08095,-5.23621 5.466064,-9.70663 9.017362,-14.01303 2.930886,-3.24159 5.467276,-6.792896 7.830436,-10.459344 1.92539,-2.990188 3.72529,-6.057421 5.46411,-9.158978 0.75521,-1.332875 0.39877,-0.69378 1.07155,-1.916054 0,0 5.1092,-2.286884 5.1092,-2.286884 v 0 c -0.68394,1.238846 -0.32001,0.594236 -1.09539,1.931808 -1.75567,3.114392 -3.56954,6.195695 -5.49546,9.208413 -0.48279,0.754906 -1.74699,2.746729 -2.25742,3.484673 -1.70401,2.463554 -3.60218,4.799486 -5.57639,7.048876 -3.61069,4.33457 -6.951165,8.60368 -9.144084,13.87303 -0.400376,1.03921 -0.835663,2.06564 -1.201126,3.11763 -1.536124,4.42174 -2.603241,9.01682 -3.232362,13.65213 0,0 -5.006824,2.49664 -5.006824,2.49664 z"
       inkscape:connector-curvature="0" />
    <path
       style="fill:none;stroke:#808080;stroke-width:0.244;stroke-miterlimit:4;stroke-dasharray:none;stroke-dashoffset:0"
       id="path4512"
       d="m 85.641369,135.3836 c 2.741031,-4.96305 5.264306,-10.04796 8.067765,-14.97662 0.718733,-1.26358 1.477272,-2.50409 2.215909,-3.75614 3.900604,-6.72176 7.989297,-13.33017 12.054077,-19.95298 2.39838,-4.036325 4.6071,-8.187399 6.69246,-12.393602 0,0 5.02193,-2.273088 5.02193,-2.273088 v 0 c -2.11539,4.230624 -4.3594,8.402835 -6.76086,12.477548 -4.08072,6.629582 -8.19881,13.236692 -12.11103,19.968162 -0.73823,1.24528 -1.498139,2.47797 -2.214712,3.73585 -2.775559,4.87222 -5.248736,9.91314 -7.872653,14.86669 0,0 -5.092886,2.30418 -5.092886,2.30418 z"
       inkscape:connector-curvature="0" />
    <path
       style="fill:none;stroke:#808080;stroke-width:0.244;stroke-miterlimit:4;stroke-dasharray:none;stroke-dashoffset:0"
       id="path4514"
       d="m 87.43422,135.56744 c 1.654083,-3.83008 3.899565,-7.35063 5.866593,-11.01802 0.663496,-1.23704 1.292733,-2.49216 1.9391,-3.73823 4.309319,-8.36735 8.128817,-16.97513 12.401897,-25.359211 1.66114,-3.236447 3.47171,-6.392452 5.22536,-9.579044 0.59212,-1.172387 0.99897,-2.428062 1.45787,-3.65652 0,0 5.08281,-2.366367 5.08281,-2.366367 v 0 c -0.46054,1.250571 -0.88319,2.518989 -1.42364,3.736977 -1.83001,3.203208 -3.68476,6.393945 -5.42429,9.647439 -4.36184,8.346506 -8.18089,16.962576 -12.42661,25.368406 -0.628655,1.2444 -1.238514,2.49848 -1.885968,3.73321 -1.907749,3.63818 -4.161303,7.10051 -5.707026,10.92121 0,0 -5.106096,2.31015 -5.106096,2.31015 z"
       inkscape:connector-curvature="0" />
    <path
       style="fill:none;stroke:#808080;stroke-width:0.244;stroke-miterlimit:4;stroke-dasharray:none;stroke-dashoffset:0"
       id="path4516"
       d="m 95.052715,95.290774 c 2.450991,-2.932896 5.606795,-5.06394 8.776875,-7.131386 3.62426,-2.216187 7.30971,-4.33379 10.74174,-6.843879 1.29245,-1.021094 2.6032,-2.017292 3.92895,-2.994502 0,0 5.17154,-2.04834 5.17154,-2.04834 v 0 c -1.34339,0.967396 -2.67166,1.954435 -3.95604,2.999914 -3.40594,2.565564 -7.10563,4.687353 -10.75357,6.885639 -3.13376,2.026991 -6.30998,4.053676 -8.74049,6.940957 0,0 -5.169005,2.191597 -5.169005,2.191597 z"
       inkscape:connector-curvature="0" />
    <path
       style="fill:none;stroke:#808080;stroke-width:0.244;stroke-miterlimit:4;stroke-dasharray:none;stroke-dashoffset:0"
       id="path4518"
       d="m 120.11303,105.75643 c -1.47304,-5.08532 -2.72413,-10.224089 -3.85478,-15.395166 -0.77241,-3.632296 -1.27468,-7.312499 -1.53435,-11.015107 -0.0999,-1.66378 -0.30348,-3.317055 -0.50451,-4.970756 0,0 4.96367,-2.602963 4.96367,-2.602963 v 0 c 0.19059,1.66692 0.4105,3.330519 0.50402,5.006877 0.18885,3.695758 0.64259,7.371921 1.38546,10.999176 1.08876,5.157121 2.34266,10.277567 3.95641,15.298299 0,0 -4.91592,2.67964 -4.91592,2.67964 z"
       inkscape:connector-curvature="0" />
    <path
       style="fill:none;stroke:#808080;stroke-width:0.244;stroke-miterlimit:4;stroke-dasharray:none;stroke-dashoffset:0"
       id="path4520"
       d="m 117.59524,75.313772 c -2.77912,1.829617 -5.73467,3.376798 -8.61092,5.040426 -1.10483,0.639038 2.20646,-1.285179 3.33594,-1.879592 0.48482,-0.255151 -0.9349,0.571511 -1.40014,0.860835 -0.42371,0.263496 -0.84445,0.531733 -1.26668,0.7976 -3.28306,2.137516 -6.71622,4.023042 -10.092045,6.006631 -1.277414,0.750594 2.572215,-1.471183 3.858325,-2.206775 -1.59563,1.085707 -3.0802,2.333992 -4.592613,3.534283 -1.222909,1.034684 -2.213843,1.857869 -2.873512,3.34347 -0.305486,0.711219 -0.489308,1.461585 -0.690015,2.206144 0,0 -5.088517,2.414434 -5.088517,2.414434 v 0 c 0.23381,-0.751988 0.362352,-1.533263 0.676667,-2.261031 0.170471,-0.473245 0.295039,-0.891413 0.560011,-1.326174 0.555067,-0.910751 1.483085,-1.539539 2.21497,-2.290794 0.74888,-0.600176 1.51365,-1.178616 2.266715,-1.773116 0.513495,-0.405374 0.985581,-0.861589 1.500722,-1.26487 0.259402,-0.203073 0.539228,-0.378605 0.808842,-0.567907 15.11605,-8.803611 2.13287,-1.240901 1.85892,-1.085244 -0.338355,0.192252 0.65901,-0.414179 0.99193,-0.615691 1.14337,-0.69206 2.28668,-1.382699 3.41513,-2.099495 2.90737,-1.842682 5.85194,-3.544535 8.84189,-5.279792 1.12978,-0.65568 -2.24848,1.33028 -3.3762,1.989482 -0.8228,0.480954 3.02715,-1.779344 2.43515,-1.498262 0,0 5.22543,-2.044562 5.22543,-2.044562 z"
       inkscape:connector-curvature="0" />
    <path
       style="fill:none;stroke:#808080;stroke-width:0.244;stroke-miterlimit:4;stroke-dasharray:none;stroke-dashoffset:0"
       id="path4522"
       d="m 97.834102,91.783788 c 2.431888,-2.521355 4.817908,-5.095867 7.377138,-7.489256 1.83484,-1.678636 3.82369,-3.177657 5.89917,-4.543817 1.35373,-0.876167 2.55254,-1.962811 3.75029,-3.035665 1.26883,-1.077788 2.57454,-2.108578 3.82184,-3.211557 0,0 5.18237,-2.113529 5.18237,-2.113529 v 0 c -1.23089,1.118283 -2.51963,2.163098 -3.81179,3.209507 -1.21258,1.072854 -2.38337,2.203117 -3.72299,3.118141 -2.10779,1.330923 -4.12073,2.814971 -5.98216,4.475364 -2.59023,2.326613 -4.93782,4.915712 -7.3447,7.428767 0,0 -5.169168,2.162045 -5.169168,2.162045 z"
       inkscape:connector-curvature="0" />
    <path
       style="fill:none;stroke:#808080;stroke-width:0.244;stroke-miterlimit:4;stroke-dasharray:none;stroke-dashoffset:0"
       id="path4524"
       d="m 123.44644,72.206029 c -0.008,0.597577 -0.0191,1.195126 -0.0251,1.792729 -0.0183,1.823051 -0.0529,3.133762 0.0997,4.983163 0.25131,3.044367 0.80686,6.081363 1.2495,9.10146 0.81643,5.026946 1.54396,10.067835 2.34402,15.097309 0.35053,2.36129 0.79293,4.70783 1.09805,7.07581 0.0876,0.81201 0.0503,0.42066 0.11423,1.17386 0,0 -4.99806,2.59367 -4.99806,2.59367 v 0 c -0.0476,-0.74245 -0.0186,-0.35611 -0.089,-1.15885 -0.26138,-2.37676 -0.68716,-4.72935 -1.01759,-7.09676 -0.75288,-5.04819 -1.44242,-10.105774 -2.26228,-15.143986 -0.45531,-3.031776 -1.01378,-6.078799 -1.30504,-9.132297 -0.19683,-2.063388 -0.15123,-2.975428 -0.17154,-4.977376 -0.006,-0.589082 -0.0167,-1.178105 -0.0251,-1.767158 0,0 4.98812,-2.541574 4.98812,-2.541574 z"
       inkscape:connector-curvature="0" />
    <path
       style="fill:none;stroke:#808080;stroke-width:0.244;stroke-miterlimit:4;stroke-dasharray:none;stroke-dashoffset:0"
       id="path4526"
       d="m 59.79089,126.59477 c -0.29333,-3.90117 -0.651174,-7.79682 -0.994373,-11.69383 -0.214378,-2.6875 -0.429363,-5.38127 -0.383294,-8.07901 0.07619,-1.44783 0.370988,-2.87244 0.638294,-4.29393 0,0 5.024996,-2.44358 5.024996,-2.44358 v 0 c -0.263588,1.39623 -0.554122,2.79412 -0.67469,4.21132 -0.08843,2.68671 0.123232,5.37339 0.301839,8.05278 0.311671,3.8862 0.66099,7.76965 1.056738,11.64816 0,0 -4.96951,2.59809 -4.96951,2.59809 z"
       inkscape:connector-curvature="0" />
    <path
       style="fill:none;stroke:#808080;stroke-width:0.244;stroke-miterlimit:4;stroke-dasharray:none;stroke-dashoffset:0"
       id="path4528"
       d="m 66.540943,98.635705 c 3.077726,2.218565 6.29495,4.263995 9.700797,5.944245 0.815498,0.40232 1.650706,0.76339 2.47606,1.14508 2.08832,0.87766 4.210786,1.66946 6.323571,2.48524 0,0 -4.594577,3.08238 -4.594577,3.08238 v 0 c -2.101776,-0.83886 -4.213008,-1.65474 -6.293138,-2.5468 -0.828633,-0.38996 -1.666565,-0.76075 -2.485903,-1.16988 -3.431519,-1.71353 -6.675604,-3.77287 -9.852324,-5.91457 0,0 4.725514,-3.025695 4.725514,-3.025695 z"
       inkscape:connector-curvature="0" />
    <path
       style="fill:none;stroke:#808080;stroke-width:0.244;stroke-miterlimit:4;stroke-dasharray:none;stroke-dashoffset:0"
       id="path4530"
       d="m 78.603127,110.03994 c -2.752587,0.003 -5.534607,-0.0278 -8.232145,-0.64817 -0.629658,-0.14482 -1.244716,-0.34705 -1.867074,-0.52058 -1.628897,-0.54208 -3.291152,-1.03721 -4.815425,-1.8455 -1.211649,-0.6425 -2.251583,-1.48179 -3.276449,-2.37943 -0.957884,-0.79178 -1.725946,-1.76541 -2.52653,-2.70618 0,0 4.811178,-2.892093 4.811178,-2.892093 v 0 c 0.772263,0.926216 1.52904,1.869253 2.458304,2.648063 0.810414,0.70785 1.000316,0.91964 1.937055,1.53247 1.824416,1.19357 3.903784,1.87124 5.971402,2.50999 0.612854,0.15943 1.219015,0.34726 1.83856,0.47829 2.707709,0.57266 5.490943,0.56128 8.243359,0.52302 0,0 -4.542235,3.30012 -4.542235,3.30012 z"
       inkscape:connector-curvature="0" />
    <path
       style="fill:none;stroke:#808080;stroke-width:0.244;stroke-miterlimit:4;stroke-dasharray:none;stroke-dashoffset:0"
       id="path4532"
       d="m 61.124213,102.24649 c 0.132987,3.16181 0.209703,6.32546 0.271364,9.48932 0.0427,2.24515 0.0604,4.49055 0.06794,6.73604 0.0028,0.71621 0.0059,1.43241 0.0088,2.14862 0,0 -5.011926,2.55329 -5.011926,2.55329 v 0 c 0.0038,-0.71899 0.0078,-1.43797 0.0097,-2.15697 0.0029,-2.24989 0.0036,-4.49988 -0.02212,-6.74966 -0.04338,-3.14987 -0.10311,-6.30135 -0.309112,-9.4455 0,0 4.985382,-2.57514 4.985382,-2.57514 z"
       inkscape:connector-curvature="0" />
    <path
       style="fill:none;stroke:#808080;stroke-width:0.244;stroke-miterlimit:4;stroke-dasharray:none;stroke-dashoffset:0"
       id="path4538"
       d="m 54.132739,118.80577 c -1.613467,1.22127 -2.994705,2.69329 -4.297929,4.23073 -0.803659,0.92496 -1.198682,2.04329 -1.512305,3.20236 -0.18346,0.76071 -0.48568,1.48502 -0.767858,2.21289 -0.230399,0.74061 -0.357754,1.50507 -0.558509,2.25436 -0.212868,0.81643 -0.22896,1.66503 -0.251788,2.50337 0.02908,0.77826 -0.156078,1.53672 -0.267007,2.30132 -0.09573,0.72896 -0.105916,1.46504 -0.118004,2.19901 0.03299,0.82906 -0.08726,1.67508 0.05845,2.4948 0.207396,0.88499 0.6751,1.66289 1.054772,2.47866 0.453631,1.02862 1.151834,1.89943 1.933091,2.69496 0.637876,0.75464 1.372915,1.41425 2.05377,2.12736 0.817774,0.80231 1.623517,1.61691 2.41015,2.45022 0.697743,0.73197 1.46753,1.39166 2.175359,2.1118 0.639641,0.65762 1.127943,1.42198 1.814148,2.03368 0.922845,0.8687 1.906616,1.66018 2.784422,2.57643 0.781304,0.94215 1.623941,1.80819 2.5371,2.62218 1.082222,0.80075 2.218663,1.52151 3.336062,2.27118 0.817147,0.38276 1.565336,0.89499 2.363843,1.30945 0.983221,0.64434 1.969305,1.28575 2.983789,1.88045 1.308316,0.73866 2.739069,1.23091 4.131725,1.78592 1.305335,0.65045 2.720504,1.01429 4.134387,1.3413 1.624962,0.53523 3.300023,0.8871 4.947838,1.34025 1.189008,0.32614 2.404295,0.52424 3.633433,0.60134 1.332079,0.051 2.665881,0.0425 3.998732,0.0406 1.497161,-0.002 2.994316,-0.006 4.491474,-0.0103 1.221698,-0.0415 2.454635,0.0822 3.669686,-0.0673 1.07233,-0.28518 2.16076,-0.49317 3.24239,-0.73834 1.3808,-0.4213 2.82863,-0.56703 4.25589,-0.75134 1.49863,-0.22949 2.97571,-0.55251 4.46278,-0.84113 0.33435,-0.12954 0.69696,-0.16915 1.03376,-0.29025 1.80304,-0.64829 5.43327,-2.97017 -3.33515,2.02543 0.79245,-0.44116 1.51995,-0.97712 2.24937,-1.51221 0.96876,-0.63726 1.91906,-1.30226 2.81699,-2.03671 0.69973,-0.64834 1.35393,-1.3446 1.89683,-2.12961 0.59256,-0.96766 1.12966,-1.96794 1.70295,-2.9479 0.68052,-1.32861 1.22532,-2.72607 1.77792,-4.11241 0.60606,-1.25386 0.92368,-2.6037 1.31846,-3.93068 0.45124,-1.16336 0.78374,-2.34472 0.94684,-3.58114 0.1903,-1.41106 0.50672,-2.79948 0.69669,-4.21093 0.15948,-1.37624 0.41891,-2.71967 0.7982,-4.05092 0.35701,-1.22881 0.42941,-2.51231 0.58852,-3.77597 0.18861,-1.37116 0.24968,-2.75365 0.28418,-4.13576 0.0215,-1.00984 0.0167,-2.01994 0.018,-3.02994 -1.8e-4,-0.87718 -0.005,-1.75437 -0.003,-2.63155 -0.04,-0.80183 0.10468,-1.62746 -0.11601,-2.40856 -0.28486,-0.75787 -0.53211,-1.52833 -0.89154,-2.25494 -0.36381,-0.66123 -0.70084,-1.35313 -1.15875,-1.95629 -0.36414,-0.6071 -0.77799,-1.17722 -1.20107,-1.74523 -0.58374,-0.8918 -1.47622,-1.45977 -2.25801,-2.15179 -0.8191,-0.66988 -1.71483,-1.25175 -2.62987,-1.78229 -1.00992,-0.41664 -1.849,-1.12394 -2.63356,-1.86927 -0.78806,-0.65345 -1.54425,-1.34158 -2.28603,-2.04665 -1.04779,-0.69872 -2.05425,-1.45571 -3.09548,-2.16523 -0.15894,-0.12217 -0.31788,-0.24435 -0.47681,-0.36653 0,0 4.758,-3.0049 4.758,-3.0049 v 0 c 0.15328,0.11529 0.30655,0.23059 0.45982,0.34588 1.05585,0.73463 2.1101,1.47425 3.14403,2.2367 0.74662,0.69979 1.5176,1.37106 2.28916,2.04301 0.77008,0.71434 1.60535,1.33285 2.56804,1.76611 0.9294,0.56735 1.8559,1.15325 2.67993,1.86889 0.82646,0.70165 1.7147,1.33235 2.32946,2.24756 0.42899,0.56452 0.84087,1.13738 1.20731,1.74369 0.46951,0.6368 0.82567,1.35426 1.20191,2.04784 0.3779,0.75067 0.64312,1.54452 0.94175,2.32893 0.28265,0.83216 0.17953,1.69535 0.1907,2.56333 0.003,0.87731 2.6e-4,1.75462 0.003,2.63193 0.003,1.01671 -0.003,2.03349 -0.0253,3.04998 -0.0356,1.39804 -0.072,2.79891 -0.26128,4.18655 -0.15948,1.28695 -0.23102,2.59071 -0.54336,3.85245 -0.18125,0.61679 -0.41642,1.24311 -0.5376,1.87496 -0.13278,0.6923 -0.13831,1.41136 -0.30034,2.10015 -0.17813,1.41154 -0.48465,2.79772 -0.70054,4.20285 -0.12345,1.26949 -0.3943,2.4996 -0.9084,3.67359 -0.40453,1.33642 -0.67431,2.71252 -1.29959,3.97221 -0.54086,1.41035 -1.13776,2.80059 -1.73577,4.18698 -0.56648,0.98996 -1.15089,1.96781 -1.68166,2.97702 -0.18701,0.29204 -0.34897,0.60158 -0.55986,0.87688 -0.37988,0.4959 -0.88264,0.90029 -1.27894,1.3829 -0.83326,0.81469 -1.82959,1.45995 -2.80018,2.09742 -0.74596,0.51697 -1.42462,1.11068 -2.22227,1.55021 -2.59388,1.48802 -4.62494,3.1218 -7.44652,3.68928 -1.48363,0.29965 -2.97014,0.5777 -4.46749,0.80218 -1.42723,0.20349 -2.85844,0.39452 -4.244747,0.80485 -1.091515,0.24764 -2.186472,0.49615 -3.290551,0.67627 -1.229347,0.0567 -2.460969,0.008 -3.691261,0.0256 -1.494078,-7.9e-4 -2.988159,1e-4 -4.482232,0.003 -1.347152,2.1e-4 -2.696972,0.0258 -4.041886,-0.0652 -1.245089,-0.11987 -2.472137,-0.36029 -3.677168,-0.6976 -1.646637,-0.43865 -3.303704,-0.83719 -4.936003,-1.32829 -1.433087,-0.35419 -2.857612,-0.74867 -4.186225,-1.40682 -1.411721,-0.57604 -2.869327,-1.06736 -4.183353,-1.85317 -1.006549,-0.59973 -1.987129,-1.24125 -2.984013,-1.85677 -0.796282,-0.45298 -1.597732,-0.8948 -2.388497,-1.35609 -1.133367,-0.76408 -2.281079,-1.50991 -3.366543,-2.34154 -0.92688,-0.82201 -1.765329,-1.71238 -2.568249,-2.65488 -0.871927,-0.9046 -1.849686,-1.68709 -2.767174,-2.54375 -0.677614,-0.63175 -1.189905,-1.3894 -1.834965,-2.05236 -0.720436,-0.71307 -1.467696,-1.39853 -2.170086,-2.13073 -0.790366,-0.82733 -1.59767,-1.63922 -2.414309,-2.44017 -0.693243,-0.70067 -1.405962,-1.38196 -2.04882,-2.13093 -0.814012,-0.84928 -1.549151,-1.77272 -2.030775,-2.85592 -0.396645,-0.85204 -0.895789,-1.65701 -1.122018,-2.57956 -0.221634,-0.85008 -0.08581,-1.73736 -0.118566,-2.6104 0.0024,-0.75305 0.0094,-1.50753 0.08326,-2.25763 0.08868,-0.75384 0.302382,-1.49136 0.302006,-2.25154 0.01752,-0.87246 0.01852,-1.75435 0.186965,-2.61363 0.18641,-0.76783 0.400373,-1.52109 0.541427,-2.30004 0.231865,-0.73949 0.598316,-1.43138 0.788538,-2.18352 0.348671,-1.20281 0.632352,-2.41997 1.42716,-3.43333 1.331965,-1.53054 2.643518,-3.08682 4.261519,-4.33424 0,0 5.210001,-2.0855 5.210001,-2.0855 z"
       inkscape:connector-curvature="0" />
    <path
       style="fill:none;stroke:#808080;stroke-width:0.244;stroke-miterlimit:4;stroke-dasharray:none;stroke-dashoffset:0"
       id="path4540"
       d="m 88.007231,101.81009 c -3.130515,-0.91167 -6.070028,-2.356915 -9.087707,-3.573072 -1.639932,-0.64752 -3.318774,-1.208683 -5.075563,-1.410148 -0.592235,-0.038 -0.306483,-0.05154 -0.857721,0.0292 0,0 4.543327,-3.340555 4.543327,-3.340555 v 0 c 0.603864,0.0141 0.298403,-0.0068 0.916215,0.06508 1.76103,0.291786 3.443984,0.892019 5.092325,1.56713 3.000959,1.242518 5.947235,2.675096 9.10196,3.49482 0,0 -4.632836,3.167545 -4.632836,3.167545 z"
       inkscape:connector-curvature="0" />
  </g>
  <g
     inkscape:groupmode="layer"
     id="layer2"
     inkscape:label="Dial"
     transform="translate(-101.25388,-173.09541)" />
  <g
     inkscape:groupmode="layer"
     id="layer3"
     inkscape:label="Hands"
     transform="translate(-101.25388,-173.09541)">
    <g
       id="g4973"
       style="fill:#ffffff;filter:url(#filter4997)">
      <path
         style="color:#000000;font-style:normal;font-variant:normal;font-weight:normal;font-stretch:normal;font-size:medium;line-height:normal;font-family:sans-serif;font-variant-ligatures:normal;font-variant-position:normal;font-variant-caps:normal;font-variant-numeric:normal;font-variant-alternates:normal;font-feature-settings:normal;text-indent:0;text-align:start;text-decoration:none;text-decoration-line:none;text-decoration-style:solid;text-decoration-color:#000000;letter-spacing:normal;word-spacing:normal;text-transform:none;writing-mode:lr-tb;direction:ltr;text-orientation:mixed;dominant-baseline:auto;baseline-shift:baseline;text-anchor:start;white-space:normal;shape-padding:0;clip-rule:nonzero;display:inline;overflow:visible;visibility:visible;opacity:1;isolation:auto;mix-blend-mode:normal;color-interpolation:sRGB;color-interpolation-filters:linearRGB;solid-color:#000000;solid-opacity:1;vector-effect:none;fill:#ffffff;fill-opacity:1;fill-rule:nonzero;stroke:none;stroke-width:8;stroke-linecap:round;stroke-linejoin:round;stroke-miterlimit:4;stroke-dasharray:none;stroke-dashoffset:0;stroke-opacity:1;color-rendering:auto;image-rendering:auto;shape-rendering:auto;text-rendering:auto;enable-background:accumulate"
         d="m 150.39258,189.74414 c -8.11055,0.47627 -15.97971,3.2643 -22.63477,8.11719 a 4.0007489,4.0007489 0 1 0 4.71485,6.46484 c 7.21121,-5.25843 16.16765,-7.53114 25.01367,-6.34765 a 4.0004,4.0004 0 1 0 1.0625,-7.92969 c -2.72126,-0.36407 -5.45274,-0.46345 -8.15625,-0.30469 z"
         id="path4961"
         inkscape:connector-curvature="0" />
      <path
         style="color:#000000;font-style:normal;font-variant:normal;font-weight:normal;font-stretch:normal;font-size:medium;line-height:normal;font-family:sans-serif;font-variant-ligatures:normal;font-variant-position:normal;font-variant-caps:normal;font-variant-numeric:normal;font-variant-alternates:normal;font-feature-settings:normal;text-indent:0;text-align:start;text-decoration:none;text-decoration-line:none;text-decoration-style:solid;text-decoration-color:#000000;letter-spacing:normal;word-spacing:normal;text-transform:none;writing-mode:lr-tb;direction:ltr;text-orientation:mixed;dominant-baseline:auto;baseline-shift:baseline;text-anchor:start;white-space:normal;shape-padding:0;clip-rule:nonzero;display:inline;overflow:visible;visibility:visible;opacity:1;isolation:auto;mix-blend-mode:normal;color-interpolation:sRGB;color-interpolation-filters:linearRGB;solid-color:#000000;solid-opacity:1;vector-effect:none;fill:#ffffff;fill-opacity:1;fill-rule:nonzero;stroke:none;stroke-width:8;stroke-linecap:round;stroke-linejoin:round;stroke-miterlimit:4;stroke-dasharray:none;stroke-dashoffset:0;stroke-opacity:1;color-rendering:auto;image-rendering:auto;shape-rendering:auto;text-rendering:auto;enable-background:accumulate"
         d="m 189.45703,214.96875 a 4.0004,4.0004 0 0 0 -3.81055,5.46875 c 5.14759,13.57641 1.40307,28.8868 -9.42968,38.55469 -10.83276,9.66788 -26.46908,11.6543 -39.375,5.00195 -12.90592,-6.65235 -20.35917,-20.54041 -18.76953,-34.97266 a 4.0005594,4.0005594 0 1 0 -7.95313,-0.875 c -1.94954,17.69978 7.22875,34.80052 23.05664,42.95899 15.82789,8.15847 35.08184,5.71221 48.36719,-6.14453 13.28535,-11.85674 17.89701,-30.7092 11.58398,-47.35938 a 4.0004,4.0004 0 0 0 -3.66992,-2.63281 z"
         id="path4963"
         inkscape:connector-curvature="0" />
      <path
         style="color:#000000;font-style:normal;font-variant:normal;font-weight:normal;font-stretch:normal;font-size:medium;line-height:normal;font-family:sans-serif;font-variant-ligatures:normal;font-variant-position:normal;font-variant-caps:normal;font-variant-numeric:normal;font-variant-alternates:normal;font-feature-settings:normal;text-indent:0;text-align:start;text-decoration:none;text-decoration-line:none;text-decoration-style:solid;text-decoration-color:#000000;letter-spacing:normal;word-spacing:normal;text-transform:none;writing-mode:lr-tb;direction:ltr;text-orientation:mixed;dominant-baseline:auto;baseline-shift:baseline;text-anchor:start;white-space:normal;shape-padding:0;clip-rule:nonzero;display:inline;overflow:visible;visibility:visible;opacity:1;isolation:auto;mix-blend-mode:normal;color-interpolation:sRGB;color-interpolation-filters:linearRGB;solid-color:#000000;solid-opacity:1;vector-effect:none;fill:#ffffff;fill-opacity:1;fill-rule:nonzero;stroke:none;stroke-width:8;stroke-linecap:round;stroke-linejoin:round;stroke-miterlimit:4;stroke-dasharray:none;stroke-dashoffset:0;stroke-opacity:1;color-rendering:auto;image-rendering:auto;shape-rendering:auto;text-rendering:auto;enable-background:accumulate"
         d="m 118.50977,205.69336 a 4.0004,4.0004 0 0 0 -3.45704,5.67187 l 11.76954,25.46094 a 4.0004,4.0004 0 1 0 7.26171,-3.35742 l -2.73242,-5.91211 c 7.05024,7.27418 13.41968,14.98141 17.85156,24.42578 a 4.0004,4.0004 0 1 0 7.24219,-3.39844 c -8.39179,-17.88293 -22.28572,-29.78964 -35.01562,-41.80468 a 4.0004,4.0004 0 0 0 -2.91992,-1.08594 z"
         id="path4965"
         inkscape:connector-curvature="0" />
      <path
         style="color:#000000;font-style:normal;font-variant:normal;font-weight:normal;font-stretch:normal;font-size:medium;line-height:normal;font-family:sans-serif;font-variant-ligatures:normal;font-variant-position:normal;font-variant-caps:normal;font-variant-numeric:normal;font-variant-alternates:normal;font-feature-settings:normal;text-indent:0;text-align:start;text-decoration:none;text-decoration-line:none;text-decoration-style:solid;text-decoration-color:#000000;letter-spacing:normal;word-spacing:normal;text-transform:none;writing-mode:lr-tb;direction:ltr;text-orientation:mixed;dominant-baseline:auto;baseline-shift:baseline;text-anchor:start;white-space:normal;shape-padding:0;clip-rule:nonzero;display:inline;overflow:visible;visibility:visible;opacity:1;isolation:auto;mix-blend-mode:normal;color-interpolation:sRGB;color-interpolation-filters:linearRGB;solid-color:#000000;solid-opacity:1;vector-effect:none;fill:#ffffff;fill-opacity:1;fill-rule:nonzero;stroke:none;stroke-width:8;stroke-linecap:round;stroke-linejoin:round;stroke-miterlimit:4;stroke-dasharray:none;stroke-dashoffset:0;stroke-opacity:1;color-rendering:auto;image-rendering:auto;shape-rendering:auto;text-rendering:auto;enable-background:accumulate"
         d="m 118.71289,205.66602 a 4.0004,4.0004 0 0 0 -1.60742,7.69726 l 22.86719,9.82617 a 4.0004,4.0004 0 1 0 3.1582,-7.34961 l -22.86719,-9.82812 a 4.0004,4.0004 0 0 0 -1.55078,-0.3457 z"
         id="path4967"
         inkscape:connector-curvature="0" />
      <path
         style="color:#000000;font-style:normal;font-variant:normal;font-weight:normal;font-stretch:normal;font-size:medium;line-height:normal;font-family:sans-serif;font-variant-ligatures:normal;font-variant-position:normal;font-variant-caps:normal;font-variant-numeric:normal;font-variant-alternates:normal;font-feature-settings:normal;text-indent:0;text-align:start;text-decoration:none;text-decoration-line:none;text-decoration-style:solid;text-decoration-color:#000000;letter-spacing:normal;word-spacing:normal;text-transform:none;writing-mode:lr-tb;direction:ltr;text-orientation:mixed;dominant-baseline:auto;baseline-shift:baseline;text-anchor:start;white-space:normal;shape-padding:0;clip-rule:nonzero;display:inline;overflow:visible;visibility:visible;opacity:1;isolation:auto;mix-blend-mode:normal;color-interpolation:sRGB;color-interpolation-filters:linearRGB;solid-color:#000000;solid-opacity:1;vector-effect:none;fill:#ffffff;fill-opacity:1;fill-rule:nonzero;stroke:none;stroke-width:8;stroke-linecap:round;stroke-linejoin:round;stroke-miterlimit:4;stroke-dasharray:none;stroke-dashoffset:0;stroke-opacity:1;color-rendering:auto;image-rendering:auto;shape-rendering:auto;text-rendering:auto;enable-background:accumulate"
         d="m 184.77344,182.44336 a 4.0004,4.0004 0 0 0 -3.59375,1.92773 c -12.84605,20.59811 -27.79556,41.30743 -32.28711,65.17188 a 4.0007176,4.0007176 0 1 0 7.86328,1.48047 c 4.04143,-21.47288 18.18524,-41.53181 31.21094,-62.41797 a 4.0004,4.0004 0 0 0 -3.19336,-6.16211 z"
         id="path4969"
         inkscape:connector-curvature="0" />
      <path
         style="color:#000000;font-style:normal;font-variant:normal;font-weight:normal;font-stretch:normal;font-size:medium;line-height:normal;font-family:sans-serif;font-variant-ligatures:normal;font-variant-position:normal;font-variant-caps:normal;font-variant-numeric:normal;font-variant-alternates:normal;font-feature-settings:normal;text-indent:0;text-align:start;text-decoration:none;text-decoration-line:none;text-decoration-style:solid;text-decoration-color:#000000;letter-spacing:normal;word-spacing:normal;text-transform:none;writing-mode:lr-tb;direction:ltr;text-orientation:mixed;dominant-baseline:auto;baseline-shift:baseline;text-anchor:start;white-space:normal;shape-padding:0;clip-rule:nonzero;display:inline;overflow:visible;visibility:visible;opacity:1;isolation:auto;mix-blend-mode:normal;color-interpolation:sRGB;color-interpolation-filters:linearRGB;solid-color:#000000;solid-opacity:1;vector-effect:none;fill:#ffffff;fill-opacity:1;fill-rule:nonzero;stroke:none;stroke-width:8;stroke-linecap:round;stroke-linejoin:round;stroke-miterlimit:4;stroke-dasharray:none;stroke-dashoffset:0;stroke-opacity:1;color-rendering:auto;image-rendering:auto;shape-rendering:auto;text-rendering:auto;enable-background:accumulate"
         d="M 184.48828,182.49023 A 4.0004,4.0004 0 0 0 182,183.42578 l -28.53125,23.98047 a 4.0004,4.0004 0 1 0 5.14648,6.125 l 19.64258,-16.50977 -5.74023,27.16016 a 4.0005053,4.0005053 0 1 0 7.82812,1.6543 l 8.14063,-38.52149 a 4.0004,4.0004 0 0 0 -3.99805,-4.82422 z"
         id="path4971"
         inkscape:connector-curvature="0" />
    </g>
    <g
       id="g4959">
      <path
         inkscape:connector-curvature="0"
         id="path4564"
         d="m 150.39258,189.74414 c -8.11055,0.47627 -15.97971,3.2643 -22.63477,8.11719 a 4.0007489,4.0007489 0 1 0 4.71485,6.46484 c 7.21121,-5.25843 16.16765,-7.53114 25.01367,-6.34765 a 4.0004,4.0004 0 1 0 1.0625,-7.92969 c -2.72126,-0.36407 -5.45274,-0.46345 -8.15625,-0.30469 z"
         style="color:#000000;font-style:normal;font-variant:normal;font-weight:normal;font-stretch:normal;font-size:medium;line-height:normal;font-family:sans-serif;font-variant-ligatures:normal;font-variant-position:normal;font-variant-caps:normal;font-variant-numeric:normal;font-variant-alternates:normal;font-feature-settings:normal;text-indent:0;text-align:start;text-decoration:none;text-decoration-line:none;text-decoration-style:solid;text-decoration-color:#000000;letter-spacing:normal;word-spacing:normal;text-transform:none;writing-mode:lr-tb;direction:ltr;text-orientation:mixed;dominant-baseline:auto;baseline-shift:baseline;text-anchor:start;white-space:normal;shape-padding:0;clip-rule:nonzero;display:inline;overflow:visible;visibility:visible;opacity:1;isolation:auto;mix-blend-mode:normal;color-interpolation:sRGB;color-interpolation-filters:linearRGB;solid-color:#000000;solid-opacity:1;vector-effect:none;fill:#000000;fill-opacity:1;fill-rule:nonzero;stroke:none;stroke-width:8;stroke-linecap:round;stroke-linejoin:round;stroke-miterlimit:4;stroke-dasharray:none;stroke-dashoffset:0;stroke-opacity:1;color-rendering:auto;image-rendering:auto;shape-rendering:auto;text-rendering:auto;enable-background:accumulate" />
      <path
         inkscape:connector-curvature="0"
         id="path4566"
         d="m 189.45703,214.96875 a 4.0004,4.0004 0 0 0 -3.81055,5.46875 c 5.14759,13.57641 1.40307,28.8868 -9.42968,38.55469 -10.83276,9.66788 -26.46908,11.6543 -39.375,5.00195 -12.90592,-6.65235 -20.35917,-20.54041 -18.76953,-34.97266 a 4.0005594,4.0005594 0 1 0 -7.95313,-0.875 c -1.94954,17.69978 7.22875,34.80052 23.05664,42.95899 15.82789,8.15847 35.08184,5.71221 48.36719,-6.14453 13.28535,-11.85674 17.89701,-30.7092 11.58398,-47.35938 a 4.0004,4.0004 0 0 0 -3.66992,-2.63281 z"
         style="color:#000000;font-style:normal;font-variant:normal;font-weight:normal;font-stretch:normal;font-size:medium;line-height:normal;font-family:sans-serif;font-variant-ligatures:normal;font-variant-position:normal;font-variant-caps:normal;font-variant-numeric:normal;font-variant-alternates:normal;font-feature-settings:normal;text-indent:0;text-align:start;text-decoration:none;text-decoration-line:none;text-decoration-style:solid;text-decoration-color:#000000;letter-spacing:normal;word-spacing:normal;text-transform:none;writing-mode:lr-tb;direction:ltr;text-orientation:mixed;dominant-baseline:auto;baseline-shift:baseline;text-anchor:start;white-space:normal;shape-padding:0;clip-rule:nonzero;display:inline;overflow:visible;visibility:visible;opacity:1;isolation:auto;mix-blend-mode:normal;color-interpolation:sRGB;color-interpolation-filters:linearRGB;solid-color:#000000;solid-opacity:1;vector-effect:none;fill:#000000;fill-opacity:1;fill-rule:nonzero;stroke:none;stroke-width:8;stroke-linecap:round;stroke-linejoin:round;stroke-miterlimit:4;stroke-dasharray:none;stroke-dashoffset:0;stroke-opacity:1;color-rendering:auto;image-rendering:auto;shape-rendering:auto;text-rendering:auto;enable-background:accumulate" />
      <path
         inkscape:connector-curvature="0"
         id="path4568"
         d="m 118.50977,205.69336 a 4.0004,4.0004 0 0 0 -3.45704,5.67187 l 11.76954,25.46094 a 4.0004,4.0004 0 1 0 7.26171,-3.35742 l -2.73242,-5.91211 c 7.05024,7.27418 13.41968,14.98141 17.85156,24.42578 a 4.0004,4.0004 0 1 0 7.24219,-3.39844 c -8.39179,-17.88293 -22.28572,-29.78964 -35.01562,-41.80468 a 4.0004,4.0004 0 0 0 -2.91992,-1.08594 z"
         style="color:#000000;font-style:normal;font-variant:normal;font-weight:normal;font-stretch:normal;font-size:medium;line-height:normal;font-family:sans-serif;font-variant-ligatures:normal;font-variant-position:normal;font-variant-caps:normal;font-variant-numeric:normal;font-variant-alternates:normal;font-feature-settings:normal;text-indent:0;text-align:start;text-decoration:none;text-decoration-line:none;text-decoration-style:solid;text-decoration-color:#000000;letter-spacing:normal;word-spacing:normal;text-transform:none;writing-mode:lr-tb;direction:ltr;text-orientation:mixed;dominant-baseline:auto;baseline-shift:baseline;text-anchor:start;white-space:normal;shape-padding:0;clip-rule:nonzero;display:inline;overflow:visible;visibility:visible;opacity:1;isolation:auto;mix-blend-mode:normal;color-interpolation:sRGB;color-interpolation-filters:linearRGB;solid-color:#000000;solid-opacity:1;vector-effect:none;fill:#000000;fill-opacity:1;fill-rule:nonzero;stroke:none;stroke-width:8;stroke-linecap:round;stroke-linejoin:round;stroke-miterlimit:4;stroke-dasharray:none;stroke-dashoffset:0;stroke-opacity:1;color-rendering:auto;image-rendering:auto;shape-rendering:auto;text-rendering:auto;enable-background:accumulate" />
      <path
         inkscape:connector-curvature="0"
         id="path4570"
         d="m 118.71289,205.66602 a 4.0004,4.0004 0 0 0 -1.60742,7.69726 l 22.86719,9.82617 a 4.0004,4.0004 0 1 0 3.1582,-7.34961 l -22.86719,-9.82812 a 4.0004,4.0004 0 0 0 -1.55078,-0.3457 z"
         style="color:#000000;font-style:normal;font-variant:normal;font-weight:normal;font-stretch:normal;font-size:medium;line-height:normal;font-family:sans-serif;font-variant-ligatures:normal;font-variant-position:normal;font-variant-caps:normal;font-variant-numeric:normal;font-variant-alternates:normal;font-feature-settings:normal;text-indent:0;text-align:start;text-decoration:none;text-decoration-line:none;text-decoration-style:solid;text-decoration-color:#000000;letter-spacing:normal;word-spacing:normal;text-transform:none;writing-mode:lr-tb;direction:ltr;text-orientation:mixed;dominant-baseline:auto;baseline-shift:baseline;text-anchor:start;white-space:normal;shape-padding:0;clip-rule:nonzero;display:inline;overflow:visible;visibility:visible;opacity:1;isolation:auto;mix-blend-mode:normal;color-interpolation:sRGB;color-interpolation-filters:linearRGB;solid-color:#000000;solid-opacity:1;vector-effect:none;fill:#000000;fill-opacity:1;fill-rule:nonzero;stroke:none;stroke-width:8;stroke-linecap:round;stroke-linejoin:round;stroke-miterlimit:4;stroke-dasharray:none;stroke-dashoffset:0;stroke-opacity:1;color-rendering:auto;image-rendering:auto;shape-rendering:auto;text-rendering:auto;enable-background:accumulate" />
      <path
         inkscape:connector-curvature="0"
         id="path4572"
         d="m 184.77344,182.44336 a 4.0004,4.0004 0 0 0 -3.59375,1.92773 c -12.84605,20.59811 -27.79556,41.30743 -32.28711,65.17188 a 4.0007176,4.0007176 0 1 0 7.86328,1.48047 c 4.04143,-21.47288 18.18524,-41.53181 31.21094,-62.41797 a 4.0004,4.0004 0 0 0 -3.19336,-6.16211 z"
         style="color:#000000;font-style:normal;font-variant:normal;font-weight:normal;font-stretch:normal;font-size:medium;line-height:normal;font-family:sans-serif;font-variant-ligatures:normal;font-variant-position:normal;font-variant-caps:normal;font-variant-numeric:normal;font-variant-alternates:normal;font-feature-settings:normal;text-indent:0;text-align:start;text-decoration:none;text-decoration-line:none;text-decoration-style:solid;text-decoration-color:#000000;letter-spacing:normal;word-spacing:normal;text-transform:none;writing-mode:lr-tb;direction:ltr;text-orientation:mixed;dominant-baseline:auto;baseline-shift:baseline;text-anchor:start;white-space:normal;shape-padding:0;clip-rule:nonzero;display:inline;overflow:visible;visibility:visible;opacity:1;isolation:auto;mix-blend-mode:normal;color-interpolation:sRGB;color-interpolation-filters:linearRGB;solid-color:#000000;solid-opacity:1;vector-effect:none;fill:#000000;fill-opacity:1;fill-rule:nonzero;stroke:none;stroke-width:8;stroke-linecap:round;stroke-linejoin:round;stroke-miterlimit:4;stroke-dasharray:none;stroke-dashoffset:0;stroke-opacity:1;color-rendering:auto;image-rendering:auto;shape-rendering:auto;text-rendering:auto;enable-background:accumulate" />
      <path
         inkscape:connector-curvature="0"
         id="path4574"
         d="M 184.48828,182.49023 A 4.0004,4.0004 0 0 0 182,183.42578 l -28.53125,23.98047 a 4.0004,4.0004 0 1 0 5.14648,6.125 l 19.64258,-16.50977 -5.74023,27.16016 a 4.0005053,4.0005053 0 1 0 7.82812,1.6543 l 8.14063,-38.52149 a 4.0004,4.0004 0 0 0 -3.99805,-4.82422 z"
         style="color:#000000;font-style:normal;font-variant:normal;font-weight:normal;font-stretch:normal;font-size:medium;line-height:normal;font-family:sans-serif;font-variant-ligatures:normal;font-variant-position:normal;font-variant-caps:normal;font-variant-numeric:normal;font-variant-alternates:normal;font-feature-settings:normal;text-indent:0;text-align:start;text-decoration:none;text-decoration-line:none;text-decoration-style:solid;text-decoration-color:#000000;letter-spacing:normal;word-spacing:normal;text-transform:none;writing-mode:lr-tb;direction:ltr;text-orientation:mixed;dominant-baseline:auto;baseline-shift:baseline;text-anchor:start;white-space:normal;shape-padding:0;clip-rule:nonzero;display:inline;overflow:visible;visibility:visible;opacity:1;isolation:auto;mix-blend-mode:normal;color-interpolation:sRGB;color-interpolation-filters:linearRGB;solid-color:#000000;solid-opacity:1;vector-effect:none;fill:#000000;fill-opacity:1;fill-rule:nonzero;stroke:none;stroke-width:8;stroke-linecap:round;stroke-linejoin:round;stroke-miterlimit:4;stroke-dasharray:none;stroke-dashoffset:0;stroke-opacity:1;color-rendering:auto;image-rendering:auto;shape-rendering:auto;text-rendering:auto;enable-background:accumulate" />
    </g>
  </g>
</svg>
